<?xml version="1.0" standalone="no"?>
<!DOCTYPE svg PUBLIC "-//W3C//DTD SVG 20010904//EN"
 "http://www.w3.org/TR/2001/REC-SVG-20010904/DTD/svg10.dtd">
<svg version="1.0" xmlns="http://www.w3.org/2000/svg"
 width="72.000000pt" height="69.000000pt" viewBox="0 0 72.000000 69.000000"
 preserveAspectRatio="xMidYMid meet">
<metadata>
Created by potrace 1.16, written by Peter Selinger 2001-2019
</metadata>
<g transform="translate(0.000000,69.000000) scale(0.100000,-0.100000)"
fill="#000000" stroke="none">
<path d="M258 655 c-70 -23 -161 -111 -188 -181 -24 -66 -26 -153 -4 -218 17
-50 101 -151 135 -161 10 -4 19 -15 19 -26 0 -16 5 -18 28 -13 41 10 45 18 17
44 -21 20 -28 22 -35 10 -7 -11 -15 -8 -45 14 -72 55 -125 158 -125 241 0 94
75 211 164 257 60 31 169 36 238 12 73 -26 149 -102 173 -173 21 -65 17 -169
-9 -223 -40 -83 -129 -150 -219 -163 l-47 -7 0 76 c0 42 3 76 6 76 3 0 17 -9
31 -20 14 -11 37 -20 50 -20 25 0 25 1 9 25 -15 23 -15 25 1 25 10 0 35 11 57
24 37 22 38 23 15 29 -13 4 -37 7 -53 7 l-29 0 21 22 c22 24 61 104 62 126 0
10 -18 4 -55 -17 -30 -17 -57 -31 -60 -31 -3 0 -5 13 -5 28 0 34 -39 152 -50
152 -12 0 -50 -109 -50 -146 0 -40 -4 -41 -50 -11 -52 35 -70 40 -70 19 1 -22
35 -98 49 -106 21 -13 11 -24 -29 -31 -22 -4 -40 -11 -40 -15 0 -5 22 -19 49
-31 49 -23 49 -23 33 -48 l-17 -24 35 6 c18 4 41 14 50 22 9 8 20 15 23 15 4
0 7 -38 7 -84 l0 -84 43 5 c62 7 161 58 197 101 55 67 74 119 75 202 0 88 -22
144 -80 208 -76 85 -217 122 -327 87z"/>
</g>
</svg>
