<?xml version="1.0" standalone="no"?>
<!DOCTYPE svg PUBLIC "-//W3C//DTD SVG 20010904//EN"
 "http://www.w3.org/TR/2001/REC-SVG-20010904/DTD/svg10.dtd">
<svg version="1.0" xmlns="http://www.w3.org/2000/svg"
 width="179.000000pt" height="173.000000pt" viewBox="0 0 179.000000 173.000000"
 preserveAspectRatio="xMidYMid meet">
<metadata>
Created by potrace 1.16, written by Peter Selinger 2001-2019
</metadata>
<g transform="translate(0.000000,173.000000) scale(0.100000,-0.100000)"
fill="#000000" stroke="none">
<path d="M0 870 l0 -860 895 0 895 0 0 860 0 860 -895 0 -895 0 0 -860z m1032
799 c271 -56 494 -243 585 -493 44 -119 58 -304 33 -426 -51 -245 -245 -475
-477 -564 -122 -46 -293 -70 -310 -43 -4 6 -6 106 -4 222 l3 210 -54 -51 c-43
-41 -66 -54 -109 -64 -30 -6 -69 -10 -88 -8 l-35 3 58 63 58 62 -31 0 c-17 0
-53 8 -80 19 -60 22 -184 103 -173 112 11 10 159 39 201 39 l38 0 -42 43 c-22
24 -53 68 -68 100 -31 66 -83 234 -75 243 14 13 201 -97 260 -153 l36 -35 0
78 c0 90 35 210 101 349 l38 80 23 -50 c80 -180 122 -349 103 -422 l-10 -41
59 48 c57 46 244 148 254 138 7 -8 -61 -202 -92 -258 -15 -28 -46 -68 -69 -89
l-42 -39 73 -6 c40 -4 97 -14 126 -22 l53 -16 -30 -24 c-48 -39 -168 -93 -221
-101 -27 -3 -44 -8 -37 -10 13 -5 93 -105 93 -117 0 -11 -109 5 -150 21 -19 8
-54 35 -77 60 l-43 46 0 -54 c0 -30 -3 -119 -7 -198 l-6 -144 71 6 c85 7 221
52 298 98 173 104 299 285 340 488 44 223 -23 460 -179 627 -129 138 -269 211
-451 234 -302 38 -600 -121 -738 -394 -92 -182 -103 -401 -28 -598 47 -127
187 -297 288 -350 61 -33 72 -34 72 -10 0 9 4 23 9 31 7 12 26 -1 85 -59 42
-40 74 -75 72 -77 -6 -6 -179 -53 -195 -53 -13 0 -12 31 4 71 5 13 -10 26 -61
54 -173 97 -311 295 -356 511 -84 408 185 818 596 909 76 16 238 19 308 4z"/>
</g>
</svg>
